{
	"asset":{
		"generator":"Khronos glTF Blender I/O v4.1.63",
		"version":"2.0"
	},
	"scene":0,
	"scenes":[
		{
			"name":"Scene",
			"nodes":[
				0
			]
		}
	],
	"nodes":[
		{
			"mesh":0,
			"name":"root",
			"rotation":[
				0.7071068286895752,
				0,
				0,
				0.7071068286895752
			]
		}
	],
	"materials":[
		{
			"doubleSided":true,
			"name":"DragonMat",
			"pbrMetallicRoughness":{
				"baseColorFactor":[
					1,
					1,
					1,
					1
				],
				"metallicFactor":0,
				"roughnessFactor":0.6900347471237183
			}
		}
	],
	"meshes":[
		{
			"name":"root",
			"primitives":[
				{
					"attributes":{
						"POSITION":0,
						"NORMAL":1,
						"TEXCOORD_0":2
					},
					"indices":3,
					"material":0
				}
			]
		}
	],
	"accessors":[
		{
			"bufferView":0,
			"componentType":5126,
			"count":43924,
			"max":[
				0.20740999281406403,
				0.5278040170669556,
				-0.005373000167310238
			],
			"min":[
				-0.23987700045108795,
				-0.472214013338089,
				-0.7103070020675659
			],
			"type":"VEC3"
		},
		{
			"bufferView":1,
			"componentType":5126,
			"count":43924,
			"type":"VEC3"
		},
		{
			"bufferView":2,
			"componentType":5126,
			"count":43924,
			"type":"VEC2"
		},
		{
			"bufferView":3,
			"componentType":5123,
			"count":261390,
			"type":"SCALAR"
		}
	],
	"bufferViews":[
		{
			"buffer":0,
			"byteLength":527088,
			"byteOffset":0,
			"target":34962
		},
		{
			"buffer":0,
			"byteLength":527088,
			"byteOffset":527088,
			"target":34962
		},
		{
			"buffer":0,
			"byteLength":351392,
			"byteOffset":1054176,
			"target":34962
		},
		{
			"buffer":0,
			"byteLength":522780,
			"byteOffset":1405568,
			"target":34963
		}
	],
	"buffers":[
		{
			"byteLength":1928348,
			"uri":"dragon2.bin"
		}
	]
}
